<svg width="16" height="16" viewBox="0 0 16 16" fill="none" xmlns="http://www.w3.org/2000/svg">
<mask id="mask0_992_11734" style="mask-type:alpha" maskUnits="userSpaceOnUse" x="0" y="0" width="16" height="16">
<rect width="16" height="16" fill="#D9D9D9"/>
</mask>
<g mask="url(#mask0_992_11734)">
<path d="M8.00065 11.334C8.18954 11.334 8.34798 11.27 8.47598 11.142C8.60354 11.0144 8.66732 10.8562 8.66732 10.6673C8.66732 10.4784 8.60354 10.32 8.47598 10.192C8.34798 10.0644 8.18954 10.0007 8.00065 10.0007C7.81176 10.0007 7.65354 10.0644 7.52598 10.192C7.39798 10.32 7.33398 10.4784 7.33398 10.6673C7.33398 10.8562 7.39798 11.0144 7.52598 11.142C7.65354 11.27 7.81176 11.334 8.00065 11.334ZM7.33398 8.66732H8.66732V4.66732H7.33398V8.66732ZM8.00065 14.6673C7.07843 14.6673 6.21176 14.4922 5.40065 14.142C4.58954 13.7922 3.88398 13.3173 3.28398 12.7173C2.68398 12.1173 2.2091 11.4118 1.85932 10.6006C1.5091 9.78954 1.33398 8.92287 1.33398 8.00065C1.33398 7.07843 1.5091 6.21176 1.85932 5.40065C2.2091 4.58954 2.68398 3.88398 3.28398 3.28398C3.88398 2.68398 4.58954 2.20887 5.40065 1.85865C6.21176 1.50887 7.07843 1.33398 8.00065 1.33398C8.92287 1.33398 9.78954 1.50887 10.6006 1.85865C11.4118 2.20887 12.1173 2.68398 12.7173 3.28398C13.3173 3.88398 13.7922 4.58954 14.142 5.40065C14.4922 6.21176 14.6673 7.07843 14.6673 8.00065C14.6673 8.92287 14.4922 9.78954 14.142 10.6006C13.7922 11.4118 13.3173 12.1173 12.7173 12.7173C12.1173 13.3173 11.4118 13.7922 10.6006 14.142C9.78954 14.4922 8.92287 14.6673 8.00065 14.6673ZM8.00065 13.334C9.48954 13.334 10.7507 12.8173 11.784 11.784C12.8173 10.7507 13.334 9.48954 13.334 8.00065C13.334 6.51176 12.8173 5.25065 11.784 4.21732C10.7507 3.18398 9.48954 2.66732 8.00065 2.66732C6.51176 2.66732 5.25065 3.18398 4.21732 4.21732C3.18398 5.25065 2.66732 6.51176 2.66732 8.00065C2.66732 9.48954 3.18398 10.7507 4.21732 11.784C5.25065 12.8173 6.51176 13.334 8.00065 13.334Z" fill="#D4362E"/>
</g>
</svg>
