<svg width="18" height="18" viewBox="0 0 18 18" fill="none" xmlns="http://www.w3.org/2000/svg">
<mask id="mask0_7433_74974" style="mask-type:alpha" maskUnits="userSpaceOnUse" x="0" y="0" width="18" height="18">
<rect width="18" height="18" fill="#D9D9D9"/>
</mask>
<g mask="url(#mask0_7433_74974)">
<path d="M7.14894 11.7119C5.86819 11.7119 4.78356 11.2677 3.89506 10.3794C3.00669 9.49087 2.5625 8.40625 2.5625 7.1255C2.5625 5.84475 3.00669 4.76012 3.89506 3.87162C4.78356 2.98325 5.86819 2.53906 7.14894 2.53906C8.42969 2.53906 9.51431 2.98325 10.4028 3.87162C11.2912 4.76012 11.7354 5.84475 11.7354 7.1255C11.7354 7.66112 11.6455 8.17269 11.4657 8.66019C11.2859 9.14769 11.0459 9.57169 10.7459 9.93219L15.0614 14.2477C15.1653 14.3514 15.2184 14.4819 15.2208 14.6392C15.2232 14.7964 15.1701 14.9294 15.0614 15.038C14.9528 15.1466 14.8211 15.2009 14.6662 15.2009C14.5114 15.2009 14.3797 15.1466 14.2711 15.038L9.95563 10.7225C9.58063 11.0321 9.14937 11.2744 8.66187 11.4494C8.17437 11.6244 7.67006 11.7119 7.14894 11.7119ZM7.14894 10.5871C8.11531 10.5871 8.93381 10.2517 9.60444 9.581C10.2752 8.91037 10.6106 8.09187 10.6106 7.1255C10.6106 6.15912 10.2752 5.34062 9.60444 4.67C8.93381 3.99925 8.11531 3.66387 7.14894 3.66387C6.18256 3.66387 5.36406 3.99925 4.69344 4.67C4.02269 5.34062 3.68731 6.15912 3.68731 7.1255C3.68731 8.09187 4.02269 8.91037 4.69344 9.581C5.36406 10.2517 6.18256 10.5871 7.14894 10.5871Z" fill="#212121"/>
</g>
</svg>
