<svg width="14" height="14" viewBox="0 0 14 14" fill="none" xmlns="http://www.w3.org/2000/svg">
<path d="M6.66667 13.3333C5.74444 13.3333 4.87778 13.1582 4.06667 12.808C3.25556 12.4582 2.55 11.9833 1.95 11.3833C1.35 10.7833 0.875111 10.0778 0.525333 9.26667C0.175111 8.45555 0 7.58889 0 6.66667C0 5.74444 0.175111 4.87778 0.525333 4.06667C0.875111 3.25556 1.35 2.55 1.95 1.95C2.55 1.35 3.25556 0.874889 4.06667 0.524667C4.87778 0.174889 5.74444 0 6.66667 0C7.38889 0 8.07222 0.105555 8.71667 0.316667C9.36111 0.527778 9.95555 0.822222 10.5 1.2L9.53333 2.18333C9.11111 1.91667 8.66111 1.70822 8.18333 1.558C7.70555 1.40822 7.2 1.33333 6.66667 1.33333C5.18889 1.33333 3.93067 1.85267 2.892 2.89133C1.85289 3.93044 1.33333 5.18889 1.33333 6.66667C1.33333 8.14444 1.85289 9.40289 2.892 10.442C3.93067 11.4807 5.18889 12 6.66667 12C8.14444 12 9.40289 11.4807 10.442 10.442C11.4807 9.40289 12 8.14444 12 6.66667C12 6.46667 11.9889 6.26667 11.9667 6.06667C11.9444 5.86667 11.9111 5.67222 11.8667 5.48333L12.95 4.4C13.0722 4.75556 13.1667 5.12222 13.2333 5.5C13.3 5.87778 13.3333 6.26667 13.3333 6.66667C13.3333 7.58889 13.1582 8.45555 12.808 9.26667C12.4582 10.0778 11.9833 10.7833 11.3833 11.3833C10.7833 11.9833 10.0778 12.4582 9.26667 12.808C8.45555 13.1582 7.58889 13.3333 6.66667 13.3333ZM5.73333 9.73333L2.9 6.9L3.83333 5.96667L5.73333 7.86667L12.4 1.18333L13.3333 2.11667L5.73333 9.73333Z" fill="#3C9718"/>
</svg>
