<svg width="18" height="18" viewBox="0 0 18 18" fill="none" xmlns="http://www.w3.org/2000/svg">
<mask id="mask0_2141_81048" style="mask-type:alpha" maskUnits="userSpaceOnUse" x="0" y="0" width="18" height="18">
<rect width="18" height="18" fill="#D9D9D9"/>
</mask>
<g mask="url(#mask0_2141_81048)">
<path d="M9.0022 11.5577C9.85208 11.5577 10.5739 11.2603 11.1676 10.6654C11.7614 10.0706 12.0583 9.34819 12.0583 8.49831C12.0583 7.64844 11.7608 6.92662 11.166 6.33287C10.5711 5.73912 9.8487 5.44225 8.99883 5.44225C8.14895 5.44225 7.42714 5.73969 6.83339 6.33456C6.23964 6.92944 5.94277 7.65181 5.94277 8.50169C5.94277 9.35156 6.2402 10.0734 6.83508 10.6671C7.42995 11.2609 8.15233 11.5577 9.0022 11.5577ZM9.00052 10.525C8.43802 10.525 7.95989 10.3281 7.56614 9.93438C7.17239 9.54063 6.97552 9.0625 6.97552 8.5C6.97552 7.9375 7.17239 7.45938 7.56614 7.06563C7.95989 6.67188 8.43802 6.475 9.00052 6.475C9.56302 6.475 10.0411 6.67188 10.4349 7.06563C10.8286 7.45938 11.0255 7.9375 11.0255 8.5C11.0255 9.0625 10.8286 9.54063 10.4349 9.93438C10.0411 10.3281 9.56302 10.525 9.00052 10.525ZM9.00052 13.75C7.42164 13.75 5.97764 13.3288 4.66852 12.4864C3.35939 11.6442 2.31445 10.5361 1.5337 9.16206C1.4712 9.05431 1.42552 8.94575 1.39664 8.83638C1.36789 8.727 1.35352 8.61475 1.35352 8.49963C1.35352 8.3845 1.36789 8.27237 1.39664 8.16325C1.42552 8.05412 1.4712 7.94569 1.5337 7.83794C2.31445 6.46394 3.35939 5.35581 4.66852 4.51356C5.97764 3.67119 7.42164 3.25 9.00052 3.25C10.5794 3.25 12.0234 3.67119 13.3325 4.51356C14.6416 5.35581 15.6866 6.46394 16.4673 7.83794C16.5298 7.94569 16.5755 8.05425 16.6044 8.16362C16.6331 8.273 16.6475 8.38525 16.6475 8.50037C16.6475 8.6155 16.6331 8.72762 16.6044 8.83675C16.5755 8.94587 16.5298 9.05431 16.4673 9.16206C15.6866 10.5361 14.6416 11.6442 13.3325 12.4864C12.0234 13.3288 10.5794 13.75 9.00052 13.75ZM9.00052 12.625C10.413 12.625 11.7099 12.2531 12.8911 11.5094C14.0724 10.7656 14.9755 9.7625 15.6005 8.5C14.9755 7.2375 14.0724 6.23438 12.8911 5.49062C11.7099 4.74687 10.413 4.375 9.00052 4.375C7.58802 4.375 6.29114 4.74687 5.10989 5.49062C3.92864 6.23438 3.02552 7.2375 2.40052 8.5C3.02552 9.7625 3.92864 10.7656 5.10989 11.5094C6.29114 12.2531 7.58802 12.625 9.00052 12.625Z" fill="#212121"/>
</g>
</svg>
