<svg width="18" height="18" viewBox="0 0 18 18" fill="none" xmlns="http://www.w3.org/2000/svg">
<mask id="mask0_8283_202257" style="mask-type:alpha" maskUnits="userSpaceOnUse" x="0" y="0" width="18" height="18">
<rect width="18" height="18" fill="#D9D9D9"/>
</mask>
<g mask="url(#mask0_8283_202257)">
<path d="M11.1601 6.46375C11.4649 6.76862 11.7004 7.13906 11.8668 7.57506C12.0332 8.01119 12.0961 8.44894 12.0556 8.88831C12.0556 9.03256 12.0037 9.15469 11.9 9.25469C11.7961 9.35469 11.6721 9.40469 11.5278 9.40469C11.3836 9.40469 11.2614 9.35469 11.1614 9.25469C11.0614 9.15469 11.0114 9.03256 11.0114 8.88831C11.0596 8.55856 11.0324 8.24606 10.9301 7.95081C10.8277 7.65569 10.6702 7.40187 10.4577 7.18937C10.2452 6.97687 9.989 6.81556 9.689 6.70544C9.389 6.59531 9.07262 6.56669 8.73987 6.61956C8.59562 6.62444 8.47112 6.57612 8.36637 6.47462C8.2615 6.37325 8.20669 6.25044 8.20194 6.10619C8.19706 5.96194 8.24344 5.83737 8.34106 5.7325C8.43869 5.62775 8.55962 5.573 8.70387 5.56825C9.14037 5.51825 9.57906 5.57519 10.0199 5.73906C10.4608 5.90306 10.8409 6.14462 11.1601 6.46375ZM9.00238 4.4965C8.736 4.4965 8.47469 4.5095 8.21844 4.5355C7.96219 4.56137 7.70712 4.60412 7.45325 4.66375C7.29362 4.6965 7.14988 4.67369 7.022 4.59531C6.89412 4.51694 6.80619 4.40419 6.75819 4.25706C6.71006 4.10519 6.72594 3.96075 6.80581 3.82375C6.88556 3.68675 7.00137 3.60187 7.15325 3.56912C7.45525 3.497 7.76031 3.44606 8.06844 3.41631C8.37669 3.38644 8.688 3.3715 9.00238 3.3715C10.6139 3.3715 12.0942 3.79025 13.4433 4.62775C14.7923 5.46525 15.8298 6.59844 16.5556 8.02731C16.6056 8.12244 16.6419 8.21831 16.6646 8.31494C16.6872 8.41156 16.6985 8.51375 16.6985 8.6215C16.6985 8.72925 16.6891 8.83144 16.6704 8.92806C16.6516 9.02469 16.6173 9.12056 16.5673 9.21569C16.3375 9.69644 16.0582 10.1447 15.7293 10.5606C15.4004 10.9765 15.0384 11.3585 14.6431 11.7066C14.5269 11.8105 14.394 11.8535 14.2445 11.8356C14.0949 11.8179 13.972 11.7431 13.8759 11.6114C13.7798 11.4796 13.7399 11.3383 13.7563 11.1874C13.7726 11.0364 13.8389 10.909 13.9552 10.8051C14.2937 10.4984 14.6024 10.1631 14.8813 9.79919C15.1601 9.43519 15.4005 9.04262 15.6024 8.6215C14.9774 7.359 14.0743 6.35587 12.893 5.61212C11.7118 4.86837 10.4149 4.4965 9.00238 4.4965ZM9.00238 13.8715C7.4235 13.8715 5.97638 13.4496 4.661 12.6059C3.34563 11.7621 2.3 10.6508 1.52413 9.27194C1.46163 9.17681 1.41594 9.07344 1.38706 8.96181C1.35819 8.85031 1.34375 8.73687 1.34375 8.6215C1.34375 8.50612 1.35625 8.39456 1.38125 8.28681C1.40625 8.17919 1.45 8.07394 1.5125 7.97106C1.79138 7.46144 2.10725 6.97606 2.46012 6.51494C2.813 6.05394 3.21875 5.64075 3.67738 5.27537L1.98406 3.57044C1.88031 3.45894 1.82912 3.3265 1.8305 3.17312C1.832 3.01975 1.88706 2.88875 1.99569 2.78013C2.10431 2.6715 2.23606 2.61719 2.39094 2.61719C2.54569 2.61719 2.67738 2.6715 2.786 2.78013L15.2188 15.2129C15.3226 15.3167 15.3777 15.4453 15.3839 15.5986C15.3902 15.7519 15.3351 15.8868 15.2188 16.0032C15.1101 16.1118 14.9784 16.1661 14.8235 16.1661C14.6688 16.1661 14.5371 16.1118 14.4284 16.0032L11.789 13.3868C11.3466 13.5579 10.892 13.6815 10.4251 13.7575C9.95837 13.8335 9.48413 13.8715 9.00238 13.8715ZM4.46788 6.06569C4.02838 6.40519 3.63338 6.78906 3.28288 7.21731C2.93238 7.64569 2.63888 8.11375 2.40237 8.6215C3.02737 9.884 3.9305 10.8871 5.11175 11.6309C6.293 12.3746 7.58988 12.7465 9.00238 12.7465C9.3245 12.7465 9.64156 12.7249 9.95356 12.6816C10.2656 12.6384 10.5754 12.5716 10.8832 12.4812L9.93406 11.509C9.78219 11.5754 9.6305 11.6203 9.479 11.6438C9.32763 11.6674 9.16875 11.6792 9.00238 11.6792C8.15138 11.6792 7.429 11.3824 6.83525 10.7886C6.2415 10.1949 5.94462 9.4725 5.94462 8.6215C5.94462 8.45512 5.95762 8.29625 5.98362 8.14487C6.00962 7.99337 6.05337 7.84169 6.11487 7.68981L4.46788 6.06569Z" fill="#212121"/>
</g>
</svg>
